# xmcd
#
# Track frame offsets:
# 150
# 17322
# 37150
# 49865
# 67141
# 79940
# 93487
# 109711
# 129473
# 138273
# 143621
# 158457
# 170603
# 181786
#
# Disc length: 2439 seconds
#
#
# Revision: 0
# Processed by: cddbd v1.5.2PL0 Copyright (c) Steve Scherf et al.
# Submitted via: FreeRIP 2.945 
#
DISCID=b409850e
DTITLE=Hosted By Ill Bill - HipHop Disciples Vol18 cd2
DYEAR=1900
DGENRE=Hip-Hop
TTITLE0=Iron God Chamber(Masta Killa RZa Ugod)
TTITLE1=Hot or Cold(Evidence Alchemist)
TTITLE2=This Dude Said(un)
TTITLE3=Lets Go(Redman)
TTITLE4=Smash and Grab(Mental Sharp)
TTITLE5=Freestyle(CoreyGunz Rain)
TTITLE6=Exclusive(La Coka Nostra)
TTITLE7=Ready To Live(Swigga)
TTITLE8=HHGfreestyle(Tom Gist)
TTITLE9=HHGfreestyle(ac)
TTITLE10=Gotta Go(DOE)
TTITLE11=Freestyle(State Store)
TTITLE12=HHGfreestyle(SUPREME)
TTITLE13=Outro(Ill Bill)
EXTD=
EXTT0=
EXTT1=
EXTT2=
EXTT3=
EXTT4=
EXTT5=
EXTT6=
EXTT7=
EXTT8=
EXTT9=
EXTT10=
EXTT11=
EXTT12=
EXTT13=
PLAYORDER=
